<svg class="svg-icon" style="width: 1em; height: 1em;vertical-align: middle;fill: currentColor;overflow: hidden;" viewBox="0 0 1024 1024" version="1.1" xmlns="http://www.w3.org/2000/svg"><path d="M760.26691 679.971993l157.118313-52.407564c81.66625-27.325863 125.714446-115.670608 98.397582-197.336858-21.259248-63.527592-80.717835-106.382622-147.706151-106.452808h-1.707867c2.580696-28.31567 3.99342-56.766313 3.99342-85.335733 0-9.426559-7.641308-17.067866-17.060667-17.067867H529.066067v-17.060667c0-47.129195-38.206538-85.337533-85.335733-85.337533s-85.328534 38.206538-85.328534 85.335733v17.060668H170.664267c-9.41936 0-17.060668 7.643107-17.060668 17.069666a941.536506 941.536506 0 0 0 134.136802 484.303409l6.388752 10.628724H17.067866A17.067866 17.067866 0 0 0 0 750.43903c0.089982 84.794039 68.807761 153.504619 153.603599 153.603599h716.792802c84.795838-0.098981 153.511817-68.809561 153.603599-153.603599a17.067866 17.067866 0 0 0-17.067866-17.067867H729.870847l6.388752-10.628724c8.429554-14.046257 16.380401-28.344464 24.007311-42.770446z m87.437723-236.731163h24.401434c17.967691 0.035993 32.505251 14.622144 32.471058 32.591634a32.517849 32.517849 0 0 1-22.229259 30.797385L825.49877 525.587346a948.846678 948.846678 0 0 0 22.207662-82.348316z m20.372021-85.335733c67.261863 0 121.793012 54.52935 121.793012 121.793012 0 52.421961-33.552647 98.966271-83.289532 115.535634l-124.584268 41.546686c5.379149-11.508752 10.425364-23.129083 15.3618-34.805202l0.20336-0.5129c4.673687-11.157821 9.117019-22.405624 13.328197-33.736211l0.583086-1.48291 81.729238-27.311466c34.895185-11.712112 53.687114-49.490334 41.976801-84.385519a66.648183 66.648183 0 0 0-63.072281-45.435725h-17.35761c0.15477-0.851234 0.260949-1.709666 0.413919-2.593294a959.84793 959.84793 0 0 0 7.522531-48.604907h5.391747zM392.533933 204.308696c0-28.272478 22.923923-51.1982 51.2-51.1982 28.272478 0 51.1982 22.923923 51.198201 51.2v17.067866h-102.398201z m477.862468 665.596401H153.603599c-59.368605-0.071986-109.695775-43.655873-118.256703-102.396401h953.306208c-8.560928 58.740527-58.888098 102.326214-118.254904 102.396401z m-536.469821-136.526735l-16.914896-28.196893A907.413371 907.413371 0 0 1 187.901301 255.508696h170.4951v41.539487l-77.053751 46.23477a17.062467 17.062467 0 0 0-8.274784 14.622144v170.671465c0 9.426559 7.641308 17.067866 17.060668 17.067867h170.673266c9.41936 0 17.060668-7.641308 17.060667-17.067867v-170.671465a17.062467 17.062467 0 0 0-8.272984-14.622144l-77.05555-46.23477V255.508696h443.557568c-0.527297 27.887353-2.40433 55.65413-5.476331 83.25354v0.183564a889.620246 889.620246 0 0 1-5.596906 41.57368c-0.15297 0.977209-0.323937 1.934622-0.476907 2.904632-1.913026 11.949666-4.085202 23.569996-6.404949 35.093146a909.884288 909.884288 0 0 1-35.838201 128c0 0.097181-0.133174 0.167367-0.167367 0.251951a905.410362 905.410362 0 0 1-48.84426 111.191283v0.20516a939.727859 939.727859 0 0 1-26.220879 46.931234l-16.99948 28.281476z m41.539487-406.770953l68.266067 40.9636v143.935887H307.2v-143.935887z m0 0"  /></svg>